# xmcd CD database generated by RipIT
#
# Track frame offsets:
# 150
# 24220
# 37267
# 56247
# 72695
# 93190
# 107405
# 123313
# 147048
# 172565
# 192125
# 207782
# 222067
# 234394
# 252257
# 270632
# 307492
#
# Disc length: 4423 seconds
#
# Revision: 0
# Processed by: cddbd v1.5.2PL0 Copyright (c) Steve Scherf et al.
# Submitted via: RipIT 3.6.0 www.suwald.com/ripit/ripit.html on 2009-02-13 at 09:50
#
DISCID=ef114511
DTITLE=Аквариум - Сезон для змей
DYEAR=2001
DGENRE=Rock
TTITLE0=Партизаны полной луны
TTITLE1=Дерево
TTITLE2=Дубровский
TTITLE3=10 стрел
TTITLE4=Таможенный блюз
TTITLE5=Чёрный Брахман
TTITLE6=Навигатор
TTITLE7=Лётчик
TTITLE8=Великая железнодорожная симфония
TTITLE9=Хилый закос под любовь
TTITLE10=Я знаю места
TTITLE11=Снится мне путь на север
TTITLE12=Пани Ирен
TTITLE13=Капитан белый снег
TTITLE14=Когда пройдёт боль
TTITLE15=Вавилон
TTITLE16=Десять стрел (римейк)
EXTD=
EXTT0=
EXTT1=
EXTT2=
EXTT3=
EXTT4=
EXTT5=
EXTT6=
EXTT7=
EXTT8=
EXTT9=
EXTT10=
EXTT11=
EXTT12=
EXTT13=
EXTT14=
EXTT15=
EXTT16=
PLAYORDER=
